# xmcd
#
# Track frame offsets:
#	150
#	1960
#	62240
#	83723
#	115275
#	131803
#	144204
#	167188
#	183509
#
# Disc length: 2827 seconds
#
# Revision: 2
# Processed by: cddbd v1.5.1PL2 Copyright (c) Steve Scherf et al.
# Submitted via: EasyCDDAExtractor 8.0.2.1
#
DISCID=770b0909
DTITLE=Wishbone Ash - Hammersmith Odeon London 25-10-78 Disc 2
DYEAR=1978
DGENRE=Hard Rock
TTITLE0=Intro
TTITLE1=Phoenix
TTITLE2=Anger In Harmony
TTITLE3=Time Was
TTITLE4=Runaway
TTITLE5=Lady Whiskey
TTITLE6=Jailbait
TTITLE7=Queen Of Torture
TTITLE8=Blowin' Free - Outro
EXTD=
EXTT0=
EXTT1=
EXTT2=
EXTT3=
EXTT4=
EXTT5=
EXTT6=
EXTT7=
EXTT8=
PLAYORDER=
